<svg id="New_Layer" data-name="New Layer" xmlns="http://www.w3.org/2000/svg" viewBox="0 0 384.71002 444.23004">
    <defs>
        <style>.cls-1{fill:#fff;}.cls-1,.cls-2{fill-rule:evenodd;}.cls-2{fill:#fff;}</style>
    </defs>
    <path class="cls-1"
          d="M630.1,268.18,485.79,351.51V518.15L630.1,601.47l144.32-83.32V351.51Zm88.02,157.88-44.34,44.37a8.51021,8.51021,0,0,1-12.07,0l-8.05-8.05a7.83166,7.83166,0,0,1-2.51-5.74,8.3787,8.3787,0,0,1,2.51-5.73l2-2-11.8-11.8-7.75,7.74.04.04L615.34,465.7a11.38311,11.38311,0,0,1,0,16.11l-40.85,40.85a11.35887,11.35887,0,0,1-16.1-.01l-16.12-16.12a11.38294,11.38294,0,0,1,0-16.11l40.85-40.85a11.395,11.395,0,0,1,16.14,0l20.16-20.49.63-.63,7.58-7.57-12.25-12.25-2,2a7.33475,7.33475,0,0,1-5.74,2.5,8.36539,8.36539,0,0,1-5.73-2.5l-8.06-8.06a8.445,8.445,0,0,1-2.5-6.03,8.60617,8.60617,0,0,1,2.49-6.05l44.4-44.33a8.43821,8.43821,0,0,1,6-2.51,7.164,7.164,0,0,1,6.02,3.15l8.05,8.06a7.82621,7.82621,0,0,1,2.51,5.73,8.379,8.379,0,0,1-2.51,5.73l-2,2.01,40.91,40.29,2.01-2a7.81574,7.81574,0,0,1,5.73-2.5,8.36511,8.36511,0,0,1,5.73,2.5l8.08,8.04a8.49563,8.49563,0,0,1,2.5,6.03A5.44352,5.44352,0,0,1,718.12,426.06Z"
          transform="translate(-437.75 -212.70996)"/>
    <path class="cls-2"
          d="M630.1,212.71,437.75,323.77V545.88L630.1,656.94,822.46,545.88V323.77ZM788.27,526.15,630.1,617.46,471.93,526.15V343.51L630.1,252.19l158.17,91.32Z"
          transform="translate(-437.75 -212.70996)"/>
    <path class="cls-2"
          d="M630.1,268.18,485.79,351.51V518.15L630.1,601.47l144.32-83.32V351.51Zm88.02,157.88-44.34,44.37a8.51021,8.51021,0,0,1-12.07,0l-8.05-8.05a7.83166,7.83166,0,0,1-2.51-5.74,8.3787,8.3787,0,0,1,2.51-5.73l2-2-11.8-11.8-7.75,7.74.04.04L615.34,465.7a11.38311,11.38311,0,0,1,0,16.11l-40.85,40.85a11.35887,11.35887,0,0,1-16.1-.01l-16.12-16.12a11.38294,11.38294,0,0,1,0-16.11l40.85-40.85a11.395,11.395,0,0,1,16.14,0l20.16-20.49.63-.63,7.58-7.57-12.25-12.25-2,2a7.33475,7.33475,0,0,1-5.74,2.5,8.36539,8.36539,0,0,1-5.73-2.5l-8.06-8.06a8.445,8.445,0,0,1-2.5-6.03,8.60617,8.60617,0,0,1,2.49-6.05l44.4-44.33a8.43821,8.43821,0,0,1,6-2.51,7.164,7.164,0,0,1,6.02,3.15l8.05,8.06a7.82621,7.82621,0,0,1,2.51,5.73,8.379,8.379,0,0,1-2.51,5.73l-2,2.01,40.91,40.29,2.01-2a7.81574,7.81574,0,0,1,5.73-2.5,8.36511,8.36511,0,0,1,5.73,2.5l8.08,8.04a8.49563,8.49563,0,0,1,2.5,6.03A5.44352,5.44352,0,0,1,718.12,426.06Z"
          transform="translate(-437.75 -212.70996)"/>
    <path class="cls-2"
          d="M630.1,268.18,485.79,351.51V518.15L630.1,601.47l144.32-83.32V351.51Zm88.02,157.88-44.34,44.37a8.51021,8.51021,0,0,1-12.07,0l-8.05-8.05a7.83166,7.83166,0,0,1-2.51-5.74,8.3787,8.3787,0,0,1,2.51-5.73l2-2-11.8-11.8-7.75,7.74.04.04L615.34,465.7a11.38311,11.38311,0,0,1,0,16.11l-40.85,40.85a11.35887,11.35887,0,0,1-16.1-.01l-16.12-16.12a11.38294,11.38294,0,0,1,0-16.11l40.85-40.85a11.395,11.395,0,0,1,16.14,0l20.16-20.49.63-.63,7.58-7.57-12.25-12.25-2,2a7.33475,7.33475,0,0,1-5.74,2.5,8.36539,8.36539,0,0,1-5.73-2.5l-8.06-8.06a8.445,8.445,0,0,1-2.5-6.03,8.60617,8.60617,0,0,1,2.49-6.05l44.4-44.33a8.43821,8.43821,0,0,1,6-2.51,7.164,7.164,0,0,1,6.02,3.15l8.05,8.06a7.82621,7.82621,0,0,1,2.51,5.73,8.379,8.379,0,0,1-2.51,5.73l-2,2.01,40.91,40.29,2.01-2a7.81574,7.81574,0,0,1,5.73-2.5,8.36511,8.36511,0,0,1,5.73,2.5l8.08,8.04a8.49563,8.49563,0,0,1,2.5,6.03A5.44352,5.44352,0,0,1,718.12,426.06Z"
          transform="translate(-437.75 -212.70996)"/>
</svg>