<svg id="New_Layer" data-name="New Layer" xmlns="http://www.w3.org/2000/svg" viewBox="0 0 384.71019 444.22506"><defs><style>.cls-1{fill:#545554;}.cls-1,.cls-2,.cls-3{fill-rule:evenodd;}.cls-2{fill:#eea635;stroke:#fff;stroke-miterlimit:10;stroke-width:13px;}.cls-3,.cls-4{fill:#fef5eb;}</style></defs><polygon class="cls-1" points="192.355 0 0 111.056 0 333.169 192.355 444.225 384.71 333.169 384.71 111.056 192.355 0"/><polygon class="cls-2" points="192.355 47.069 40.763 134.591 40.763 309.634 192.355 397.156 343.947 309.634 343.947 134.591 192.355 47.069"/><path class="cls-3" d="M721.24453,402.80593a8.49335,8.49335,0,0,0-2.50415-6.02954l-8.07337-8.0382a8.37516,8.37516,0,0,0-5.73394-2.50281,7.82683,7.82683,0,0,0-5.73394,2.50281l-2.00332,2.00332-40.9122-40.29606,2.00331-2.00332a8.37434,8.37434,0,0,0,2.5037-5.73394,7.82442,7.82442,0,0,0-2.5037-5.73394l-8.056-8.056a7.14836,7.14836,0,0,0-6.02064-3.14655,8.44187,8.44187,0,0,0-5.99748,2.50415l-44.39708,44.329a8.63728,8.63728,0,0,0-2.493,6.05447,8.46223,8.46223,0,0,0,2.50414,6.0331l8.056,8.056a8.375,8.375,0,0,0,5.73394,2.50414,7.338,7.338,0,0,0,5.73394-2.50415l2.00332-2.00331,40.28,40.28-2.00332,2.002a8.373,8.373,0,0,0-2.50415,5.73394,7.82492,7.82492,0,0,0,2.50415,5.73394l8.056,8.056a8.51968,8.51968,0,0,0,12.06621,0l44.34009-44.37572A5.43717,5.43717,0,0,0,721.24453,402.80593Zm-101.21651,7.764-20.79889,21.11942a11.39251,11.39251,0,0,0-16.13338,0l-40.84987,40.84988a11.38821,11.38821,0,0,0,0,16.112l16.11558,16.11558a11.36466,11.36466,0,0,0,16.1049.01246l40.84986-40.84988a11.3882,11.3882,0,0,0,.00089-16.112l20.80957-20.80958Z" transform="translate(-437.72068 -194.83239)"/><rect class="cls-4" x="624.39814" y="399.12915" width="22.95117" height="23.64797" transform="translate(39.11005 -524.0976) rotate(44.99999)"/></svg>